<?xml version="1.0" encoding="iso-8859-1"?>
<!-- Generator: Adobe Illustrator 19.0.0, SVG Export Plug-In . SVG Version: 6.00 Build 0)  -->
<svg version="1.1" id="Capa_1" xmlns="http://www.w3.org/2000/svg" xmlns:xlink="http://www.w3.org/1999/xlink" x="0px" y="0px"
	 viewBox="0 0 469.333 469.333" style="enable-background:new 0 0 469.333 469.333;" xml:space="preserve">
<g>
	<g>
		<path d="M390.552,85.927c-0.76-0.208-1.5-0.333-2.229-0.385c-1.427-0.115-2.865-0.208-4.323-0.208
			c-47.052,0-85.333,38.281-85.333,85.333c0,5.885-4.781,10.667-10.667,10.667c-5.885,0-10.667-4.781-10.667-10.667
			c0-4.917,0.667-9.656,1.313-14.396c0.594-4.417-1.615-8.75-5.552-10.844C262.552,139.792,256,129.031,256,117.333
			c0-5.885,4.781-10.667,10.667-10.667c3.896,0,7.365,2.219,9.281,5.927c1.74,3.385,5.167,5.594,8.969,5.771
			c3.948,0.354,7.438-1.698,9.49-4.896c15.74-24.542,40.771-41.813,68.677-47.385c3.979-0.792,7.167-3.792,8.219-7.719
			c1.042-3.927-0.24-8.104-3.302-10.781c-19.427-16.927-44.042-26.25-69.333-26.25c-4.875,0-9.469,0.458-13.448,1.031
			C267.896,7.906,246.354,0,224,0c-34.375,0-66.344,18.865-83.427,49.26c-20.917,37.417-14.531,84.552,15.542,114.625
			c4.156,4.156,4.156,10.927,0,15.083c-4.042,4.021-11.042,4.021-15.083,0c-29.938-29.938-41.073-74.271-29.052-115.708
			c1.115-3.865-0.042-8.042-2.99-10.781c-2.958-2.74-7.219-3.594-10.969-2.188c-41.323,15.333-70.292,51.948-75.604,95.573
			c-0.458,3.781,1.135,7.521,4.177,9.813c3.063,2.313,7.104,2.771,10.594,1.292c11.917-5.063,24.531-7.635,37.479-7.635
			c5.885,0,10.667,4.781,10.667,10.667c0,5.885-4.781,10.667-10.667,10.667C33.5,170.667,0,204.167,0,245.333
			c0,23.812,11.646,46.427,31.156,60.5c2.729,1.948,6.177,2.5,9.385,1.531c3.198-0.979,5.74-3.406,6.885-6.552
			c4.281-11.823,10.917-22.271,19.708-31.042c4.042-4.021,11.042-4.021,15.083,0.021c2.01,2.021,3.115,4.698,3.115,7.552
			c0,2.844-1.115,5.521-3.135,7.531c-0.159,0.158-0.376,0.467-0.539,0.634c-1.363,1.395-2.483,2.891-3.703,4.358
			c-1.177,1.426-2.214,2.779-3.419,4.546c-2.059,2.954-3.766,6.01-5.232,9.186c-0.208,0.451-0.479,0.729-0.68,1.193
			c-0.089,0.206-0.036,0.436-0.112,0.646C65.858,311.781,64,318.372,64,325.333c0,34.803,35.806,63.422,82.145,68.322
			l-17.738,62.085c-0.917,3.219-0.271,6.677,1.74,9.354c2.021,2.667,5.177,4.24,8.521,4.24H192c4.677,0,8.813-3.052,10.188-7.521
			c14.396-46.583,48.969-120.479,80.479-120.479c35.073,0,69.021-13.083,95.583-36.854c3.135-2.802,4.323-7.188,3.052-11.188
			c-1.167-3.646-2.875-6.583-4.979-10.208c-1.625-2.854-4.479-4.792-7.729-5.26c-3.292-0.448-6.531,0.604-8.906,2.865
			c-8.417,8.083-18.115,13.51-28.833,16.135c-16.406,4.021-33.896,1.333-48.396-7.458c-2.438-1.479-4.146-3.823-4.823-6.583
			c-0.677-2.76-0.229-5.625,1.26-8.083c2.938-4.854,9.667-6.573,14.635-3.563c6.688,4.063,14.313,6.208,22.042,6.208
			c3.427,0,6.875-0.417,11.552-1.781c4.49-1.302,7.615-5.385,7.688-10.073c0.073-4.677-2.917-8.865-7.365-10.312
			c-4.542-1.479-7.479-5.354-7.479-9.875c0-5.885,4.781-10.667,10.667-10.667c23.99,0,46.719,11.833,60.802,31.656
			c2.146,3,5.51,4.604,9.375,4.469c3.688-0.229,6.99-2.354,8.729-5.615c2.823-5.292,5.302-10.677,7.396-16.083
			c31.542-13.229,52.396-44.104,52.396-78.396C469.333,126.385,434.802,89.333,390.552,85.927z M74.667,117.333
			C74.667,123.229,69.896,128,64,128c-5.896,0-10.667-4.771-10.667-10.667c0-17.646,14.354-32,32-32C91.229,85.333,96,90.104,96,96
			c0,5.896-4.771,10.667-10.667,10.667C79.448,106.667,74.667,111.448,74.667,117.333z M53.333,256
			c-5.896,0-10.667-4.771-10.667-10.667c0-5.896,4.771-10.667,10.667-10.667c17.948,0,32-21.802,32-49.646
			c0-5.896,4.771-10.667,10.667-10.667c5.896,0,10.667,4.771,10.667,10.667C106.667,225.49,83.74,256,53.333,256z M140.365,351.865
			c-0.573,0.094-1.146,0.135-1.708,0.135c-5.146,0-9.677-3.729-10.521-8.969c-0.052-0.344-1.677-2.573-7.552-4.365
			c-7.115-2.177-16.792-2.542-26.542-0.938c-5.802,0.938-11.292-3.031-12.229-8.833c-0.938-5.813,3.01-11.292,8.833-12.229
			c13.042-2.104,25.906-1.542,36.167,1.594c17.333,5.292,21.469,15.667,22.385,21.375
			C150.135,345.458,146.177,350.927,140.365,351.865z M223.979,277.333c-30.896,0-53.313-13.448-53.313-31.979
			c0-5.896,4.771-10.667,10.667-10.667c5.896,0,10.667,4.771,10.667,10.667c0,2.74,11,10.646,31.979,10.646
			c5.896,0,10.667,4.771,10.667,10.667S229.875,277.333,223.979,277.333z M266.667,234.667c-5.896,0-10.667-4.771-10.667-10.667
			c0-41.167-28.708-74.667-64-74.667c-5.896,0-10.667-4.771-10.667-10.667S186.104,128,192,128c8.698,0,21.333-20.781,21.333-53.333
			C213.333,68.771,218.104,64,224,64c5.896,0,10.667,4.771,10.667,10.667c0,24.445-6.178,45.185-15.939,58.63
			c33.918,12.702,58.605,48.331,58.605,90.703C277.333,229.896,272.562,234.667,266.667,234.667z M416,192
			c-29.406,0-53.333-19.135-53.333-42.667c0-5.896,4.771-10.667,10.667-10.667S384,143.437,384,149.333
			c0,11.563,14.656,21.333,32,21.333c5.896,0,10.667,4.771,10.667,10.667C426.667,187.229,421.896,192,416,192z"/>
	</g>
</g>
<g>
</g>
<g>
</g>
<g>
</g>
<g>
</g>
<g>
</g>
<g>
</g>
<g>
</g>
<g>
</g>
<g>
</g>
<g>
</g>
<g>
</g>
<g>
</g>
<g>
</g>
<g>
</g>
<g>
</g>
</svg>
