<?xml version="1.0" encoding="UTF-8"?>
<svg width="259px" height="131px" viewBox="0 0 259 131" version="1.1" xmlns="http://www.w3.org/2000/svg" xmlns:xlink="http://www.w3.org/1999/xlink">
    <!-- Generator: Sketch 51.1 (57501) - http://www.bohemiancoding.com/sketch -->
    <title>Logo</title>
    <desc>Created with Sketch.</desc>
    <defs>
        <filter x="-6.5%" y="-13.1%" width="113.0%" height="127.9%" filterUnits="objectBoundingBox" id="filter-1">
            <feOffset dx="0" dy="1" in="SourceAlpha" result="shadowOffsetOuter1"></feOffset>
            <feGaussianBlur stdDeviation="5" in="shadowOffsetOuter1" result="shadowBlurOuter1"></feGaussianBlur>
            <feColorMatrix values="0 0 0 0 0   0 0 0 0 0   0 0 0 0 0  0 0 0 0.0995810688 0" type="matrix" in="shadowBlurOuter1" result="shadowMatrixOuter1"></feColorMatrix>
            <feMerge>
                <feMergeNode in="shadowMatrixOuter1"></feMergeNode>
                <feMergeNode in="SourceGraphic"></feMergeNode>
            </feMerge>
        </filter>
    </defs>
    <g id="Page-1" stroke="none" stroke-width="1" fill="none" fill-rule="evenodd">
        <g id="Mockup-2" transform="translate(-444.000000, -105.000000)">
            <g id="Navbar" transform="translate(324.000000, 113.000000)">
                <g id="Logo" filter="url(#filter-1)" transform="translate(129.812500, 0.968750)">
                    <rect id="Rectangle-12" fill="#273748" x="0.324702107" y="0.136201909" width="238.669606" height="110.283682"></rect>
                    <g id="Group-15" transform="translate(13.000000, 31.000000)">
                        <path d="M0.0396800125,1.46093854 L11.4233806,1.46093854 C12.9190568,1.46093854 14.338543,1.60634932 15.6818818,1.89717524 C17.0252205,2.18800116 18.2023554,2.67270376 19.2133217,3.35129758 C20.224288,4.0298914 21.0275095,4.94390202 21.6230102,6.09335685 C22.2185109,7.24281169 22.5162568,8.67614652 22.5162568,10.3934043 C22.5162568,12.4707324 21.9761596,14.2364347 20.895949,15.6905643 C19.8157384,17.1446939 18.2369928,18.0656288 16.1596648,18.4533967 L23.6380083,30.8757562 L15.8688403,30.8757562 L9.71998016,19.1181384 L6.52091102,19.1181384 L6.52091102,30.8757562 L0.0396800125,30.8757562 L0.0396800125,1.46093854 Z M6.52091102,13.6340198 L10.3431755,13.6340198 C10.9248273,13.6340198 11.541092,13.6132469 12.1919881,13.5717003 C12.8428843,13.5301538 13.4314517,13.4055159 13.9577081,13.1977831 C14.4839646,12.9900503 14.9201969,12.6646072 15.2664182,12.2214439 C15.6126396,11.7782805 15.7857476,11.1550915 15.7857476,10.351858 C15.7857476,9.60401991 15.6334125,9.00852814 15.3287378,8.56536483 C15.024063,8.12220152 14.6363009,7.7829097 14.1654399,7.54747919 C13.6945789,7.31204868 13.1544817,7.15278926 12.5451321,7.06969614 C11.9357826,6.98660302 11.3402908,6.94505708 10.758639,6.94505708 L6.52091102,6.94505708 L6.52091102,13.6340198 Z M42.0378492,27.3858626 C41.0407317,28.6599571 39.780505,29.6432109 38.2571311,30.3356536 C36.7337572,31.0280963 35.1550116,31.3743124 33.5208469,31.3743124 C31.9697753,31.3743124 30.5087432,31.1250368 29.1377067,30.6264781 C27.7666702,30.1279193 26.5756867,29.4147141 25.5647204,28.4868409 C24.5537541,27.5589677 23.757457,26.4441517 23.1758051,25.1423595 C22.5941533,23.8405673 22.3033317,22.3864595 22.3033317,20.7799925 C22.3033317,19.1735255 22.5941533,17.7194177 23.1758051,16.4176255 C23.757457,15.1158332 24.5537541,14.0010173 25.5647204,13.0731441 C26.5756867,12.1452709 27.7666702,11.4320657 29.1377067,10.9335069 C30.5087432,10.4349482 31.9697753,10.1856726 33.5208469,10.1856726 C34.9611277,10.1856726 36.2698247,10.4349482 37.4469772,10.9335069 C38.6241298,11.4320657 39.6212323,12.1452709 40.4383146,13.0731441 C41.255397,14.0010173 41.8855103,15.1158332 42.3286736,16.4176255 C42.771837,17.7194177 42.9934153,19.1735255 42.9934153,20.7799925 L42.9934153,22.7326711 L28.5352846,22.7326711 C28.784564,23.9236725 29.3246611,24.8723047 30.1555923,25.5785962 C30.9865235,26.2848877 32.0113233,26.6380282 33.2300224,26.6380282 C34.2548376,26.6380282 35.1203779,26.4095256 35.8266695,25.9525134 C36.532961,25.4955012 37.1492257,24.9069338 37.6754822,24.1867934 L42.0378492,27.3858626 Z M36.7614624,18.4949431 C36.7891601,17.4424302 36.442944,16.5422683 35.7228036,15.7944302 C35.0026632,15.0465921 34.0748039,14.6726787 32.939198,14.6726787 C32.2467553,14.6726787 31.6374149,14.7834678 31.1111585,15.0050495 C30.584902,15.2266311 30.134821,15.5105284 29.760902,15.8567497 C29.3869829,16.202971 29.0961614,16.6045818 28.8884286,17.0615939 C28.6806958,17.5186061 28.5629823,17.9963844 28.5352846,18.4949431 L36.7614624,18.4949431 Z M43.6529636,27.3027698 C43.6529636,26.7765134 43.7499042,26.2779622 43.9437881,25.8071012 C44.1376721,25.3362401 44.4077206,24.9277051 44.753942,24.5814838 C45.1001633,24.2352624 45.5086984,23.9652138 45.9795594,23.7713299 C46.4504204,23.5774459 46.9489716,23.4805054 47.4752281,23.4805054 C48.0014845,23.4805054 48.5000358,23.5774459 48.9708968,23.7713299 C49.4417578,23.9652138 49.8502928,24.2352624 50.1965142,24.5814838 C50.5427355,24.9277051 50.8127841,25.3362401 51.006668,25.8071012 C51.200552,26.2779622 51.2974925,26.7765134 51.2974925,27.3027698 C51.2974925,27.8290263 51.200552,28.3275775 51.006668,28.7984385 C50.8127841,29.2692996 50.5427355,29.6778346 50.1965142,30.0240559 C49.8502928,30.3702773 49.4417578,30.6403259 48.9708968,30.8342098 C48.5000358,31.0280938 48.0014845,31.1250343 47.4752281,31.1250343 C46.9489716,31.1250343 46.4504204,31.0280938 45.9795594,30.8342098 C45.5086984,30.6403259 45.1001633,30.3702773 44.753942,30.0240559 C44.4077206,29.6778346 44.1376721,29.2692996 43.9437881,28.7984385 C43.7499042,28.3275775 43.6529636,27.8290263 43.6529636,27.3027698 Z M43.6529636,14.007937 C43.6529636,13.4816806 43.7499042,12.9831293 43.9437881,12.5122683 C44.1376721,12.0414073 44.4077206,11.6328723 44.753942,11.2866509 C45.1001633,10.9404296 45.5086984,10.670381 45.9795594,10.476497 C46.4504204,10.2826131 46.9489716,10.1856726 47.4752281,10.1856726 C48.0014845,10.1856726 48.5000358,10.2826131 48.9708968,10.476497 C49.4417578,10.670381 49.8502928,10.9404296 50.1965142,11.2866509 C50.5427355,11.6328723 50.8127841,12.0414073 51.006668,12.5122683 C51.200552,12.9831293 51.2974925,13.4816806 51.2974925,14.007937 C51.2974925,14.5341934 51.200552,15.0327447 51.006668,15.5036057 C50.8127841,15.9744667 50.5427355,16.3830018 50.1965142,16.7292231 C49.8502928,17.0754444 49.4417578,17.345493 48.9708968,17.539377 C48.5000358,17.7332609 48.0014845,17.8302015 47.4752281,17.8302015 C46.9489716,17.8302015 46.4504204,17.7332609 45.9795594,17.539377 C45.5086984,17.345493 45.1001633,17.0754444 44.753942,16.7292231 C44.4077206,16.3830018 44.1376721,15.9744667 43.9437881,15.5036057 C43.7499042,15.0327447 43.6529636,14.5341934 43.6529636,14.007937 Z" id="Re:" fill="#FFFFFF"></path>
                        <path d="M59.0685268,1.09578505 L78.8030443,1.09578505 L78.8030443,7.07845982 L65.5497578,7.07845982 L65.5497578,13.0611346 L77.8059318,13.0611346 L77.8059318,19.0438094 L65.5497578,19.0438094 L65.5497578,30.5106027 L59.0685268,30.5106027 L59.0685268,1.09578505 Z M100.163063,30.5106027 L94.180388,30.5106027 L94.180388,27.7685434 L94.0972953,27.7685434 C93.8757137,28.1563113 93.5918164,28.5440734 93.2455951,28.9318413 C92.8993737,29.3196092 92.47699,29.6658253 91.9784313,29.9705001 C91.4798726,30.2751749 90.9120781,30.5244505 90.2750309,30.7183344 C89.6379836,30.9122184 88.9455513,31.0091589 88.1977132,31.0091589 C86.6189439,31.0091589 85.3379442,30.7668076 84.3546756,30.2820977 C83.371407,29.7973879 82.6097315,29.1257286 82.0696262,28.2670996 C81.529521,27.4084707 81.1694562,26.3975196 80.9894211,25.2342159 C80.809386,24.0709122 80.7193698,22.8106855 80.7193698,21.4534978 L80.7193698,10.3190753 L86.9513227,10.3190753 L86.9513227,20.2071072 C86.9513227,20.7887591 86.9720956,21.3911752 87.0136422,22.0143736 C87.0551888,22.637572 87.1798266,23.2122908 87.3875594,23.7385472 C87.5952922,24.2648036 87.913811,24.6941117 88.3431255,25.0264841 C88.7724399,25.3588566 89.3887047,25.5250404 90.1919382,25.5250404 C90.9951717,25.5250404 91.646058,25.3796296 92.1446167,25.0888037 C92.6431755,24.7979777 93.0240132,24.4102157 93.2871414,23.9255058 C93.5502696,23.4407959 93.7233777,22.8937744 93.8064708,22.2844249 C93.889564,21.6750753 93.9311099,21.0380376 93.9311099,20.3732926 L93.9311099,10.3190753 L100.163063,10.3190753 L100.163063,30.5106027 Z M102.619491,10.3190753 L108.602166,10.3190753 L108.602166,13.0611346 L108.685258,13.0611346 C108.879142,12.6733667 109.156115,12.2856046 109.516185,11.8978367 C109.876256,11.5100688 110.305564,11.1638527 110.804122,10.8591779 C111.302681,10.5545031 111.870476,10.3052275 112.507523,10.1113436 C113.14457,9.91745961 113.837002,9.82051909 114.58484,9.82051909 C116.16361,9.82051909 117.437685,10.0628704 118.407105,10.5475803 C119.376525,11.0322901 120.131276,11.7039494 120.671381,12.5625784 C121.211486,13.4212073 121.578475,14.4321584 121.772359,15.5954621 C121.966243,16.7587658 122.063184,18.0189925 122.063184,19.3761802 L122.063184,30.5106027 L115.831231,30.5106027 L115.831231,20.6225708 C115.831231,20.0409189 115.810458,19.4385028 115.768911,18.8153044 C115.727365,18.192106 115.602727,17.6173872 115.394994,17.0911308 C115.187261,16.5648744 114.868743,16.1355663 114.439428,15.8031939 C114.010114,15.4708214 113.393849,15.3046376 112.590616,15.3046376 C111.787382,15.3046376 111.136496,15.4500484 110.637937,15.7408743 C110.139378,16.0317003 109.75854,16.4194623 109.495412,16.9041722 C109.232284,17.3888821 109.059176,17.9359036 108.976083,18.5452531 C108.89299,19.1546027 108.851444,19.7916404 108.851444,20.4563854 L108.851444,30.5106027 L102.619491,30.5106027 L102.619491,10.3190753 Z M138.188362,16.8418527 C137.883687,16.3986894 137.454379,16.0317003 136.900425,15.7408743 C136.346471,15.4500484 135.750979,15.3046376 135.113932,15.3046376 C133.535163,15.3046376 132.309557,15.7754916 131.43708,16.7172136 C130.564602,17.6589357 130.12837,18.8914651 130.12837,20.414839 C130.12837,21.9382129 130.564602,23.1707423 131.43708,24.1124644 C132.309557,25.0541864 133.535163,25.5250404 135.113932,25.5250404 C135.806375,25.5250404 136.401866,25.3727053 136.900425,25.0680305 C137.398984,24.7633557 137.828292,24.4032909 138.188362,23.9878253 L142.301451,28.308646 C141.332031,29.3057634 140.189518,30.00512 138.873877,30.4067368 C137.558236,30.8083535 136.304933,31.0091589 135.113932,31.0091589 C133.56286,31.0091589 132.101828,30.7598833 130.730792,30.2613246 C129.359755,29.7627658 128.168772,29.0495606 127.157805,28.1216874 C126.146839,27.1938142 125.350542,26.0789982 124.76889,24.777206 C124.187238,23.4754138 123.896417,22.021306 123.896417,20.414839 C123.896417,18.808372 124.187238,17.3542642 124.76889,16.052472 C125.350542,14.7506798 126.146839,13.6358638 127.157805,12.7079906 C128.168772,11.7801174 129.359755,11.0669122 130.730792,10.5683534 C132.101828,10.0697947 133.56286,9.82051909 135.113932,9.82051909 C136.304933,9.82051909 137.558236,10.0213245 138.873877,10.4229412 C140.189518,10.824558 141.332031,11.5239146 142.301451,12.521032 L138.188362,16.8418527 Z M159.59512,15.3046376 L154.111002,15.3046376 L154.111002,22.0351468 C154.111002,22.5891009 154.138699,23.0945765 154.194094,23.5515886 C154.24949,24.0086008 154.374128,24.4032872 154.568011,24.7356597 C154.761895,25.0680322 155.059641,25.3242321 155.461258,25.5042672 C155.862875,25.6843023 156.396048,25.7743185 157.060793,25.7743185 C157.393165,25.7743185 157.829397,25.7396969 158.369503,25.6704526 C158.909608,25.6012083 159.318143,25.4419489 159.59512,25.1926695 L159.59512,30.3859636 C158.902677,30.635243 158.182548,30.8014267 157.43471,30.8845199 C156.686872,30.967613 155.952894,31.0091589 155.232753,31.0091589 C154.18024,31.0091589 153.210835,30.8983697 152.324508,30.6767881 C151.438182,30.4552064 150.662658,30.102066 149.997913,29.6173561 C149.333168,29.1326462 148.813844,28.5025328 148.439924,27.7269971 C148.066005,26.9514613 147.879049,26.0097534 147.879049,24.9018451 L147.879049,15.3046376 L143.890599,15.3046376 L143.890599,10.3190753 L147.879049,10.3190753 L147.879049,4.33640055 L154.111002,4.33640055 L154.111002,10.3190753 L159.59512,10.3190753 L159.59512,15.3046376 Z M161.537412,10.3190753 L167.769365,10.3190753 L167.769365,30.5106027 L161.537412,30.5106027 L161.537412,10.3190753 Z M161.038856,3.96248338 C161.038856,2.96536593 161.391996,2.11367422 162.098288,1.40738269 C162.804579,0.701091168 163.656271,0.347950703 164.653389,0.347950703 C165.650506,0.347950703 166.502198,0.701091168 167.208489,1.40738269 C167.914781,2.11367422 168.267921,2.96536593 168.267921,3.96248338 C168.267921,4.95960083 167.914781,5.81129254 167.208489,6.51758406 C166.502198,7.22387559 165.650506,7.57701605 164.653389,7.57701605 C163.656271,7.57701605 162.804579,7.22387559 162.098288,6.51758406 C161.391996,5.81129254 161.038856,4.95960083 161.038856,3.96248338 Z M169.561051,20.414839 C169.561051,18.808372 169.851873,17.3542642 170.433525,16.052472 C171.015177,14.7506798 171.811474,13.6358638 172.82244,12.7079906 C173.833406,11.7801174 175.02439,11.0669122 176.395426,10.5683534 C177.766463,10.0697947 179.227495,9.82051909 180.778567,9.82051909 C182.329638,9.82051909 183.79067,10.0697947 185.161707,10.5683534 C186.532743,11.0669122 187.723727,11.7801174 188.734693,12.7079906 C189.74566,13.6358638 190.541957,14.7506798 191.123608,16.052472 C191.70526,17.3542642 191.996082,18.808372 191.996082,20.414839 C191.996082,22.021306 191.70526,23.4754138 191.123608,24.777206 C190.541957,26.0789982 189.74566,27.1938142 188.734693,28.1216874 C187.723727,29.0495606 186.532743,29.7627658 185.161707,30.2613246 C183.79067,30.7598833 182.329638,31.0091589 180.778567,31.0091589 C179.227495,31.0091589 177.766463,30.7598833 176.395426,30.2613246 C175.02439,29.7627658 173.833406,29.0495606 172.82244,28.1216874 C171.811474,27.1938142 171.015177,26.0789982 170.433525,24.777206 C169.851873,23.4754138 169.561051,22.021306 169.561051,20.414839 Z M175.793004,20.414839 C175.793004,21.9382129 176.229237,23.1707423 177.101714,24.1124644 C177.974192,25.0541864 179.199797,25.5250404 180.778567,25.5250404 C182.357336,25.5250404 183.582941,25.0541864 184.455419,24.1124644 C185.327897,23.1707423 185.764129,21.9382129 185.764129,20.414839 C185.764129,18.8914651 185.327897,17.6589357 184.455419,16.7172136 C183.582941,15.7754916 182.357336,15.3046376 180.778567,15.3046376 C179.199797,15.3046376 177.974192,15.7754916 177.101714,16.7172136 C176.229237,17.6589357 175.793004,18.8914651 175.793004,20.414839 Z M193.704676,10.3190753 L199.68735,10.3190753 L199.68735,13.0611346 L199.770443,13.0611346 C199.964327,12.6733667 200.2413,12.2856046 200.60137,11.8978367 C200.96144,11.5100688 201.390748,11.1638527 201.889307,10.8591779 C202.387866,10.5545031 202.95566,10.3052275 203.592708,10.1113436 C204.229755,9.91745961 204.922187,9.82051909 205.670025,9.82051909 C207.248794,9.82051909 208.52287,10.0628704 209.49229,10.5475803 C210.461709,11.0322901 211.216461,11.7039494 211.756566,12.5625784 C212.296671,13.4212073 212.66366,14.4321584 212.857544,15.5954621 C213.051428,16.7587658 213.148369,18.0189925 213.148369,19.3761802 L213.148369,30.5106027 L206.916416,30.5106027 L206.916416,20.6225708 C206.916416,20.0409189 206.895643,19.4385028 206.854096,18.8153044 C206.81255,18.192106 206.687912,17.6173872 206.480179,17.0911308 C206.272446,16.5648744 205.953927,16.1355663 205.524613,15.8031939 C205.095298,15.4708214 204.479034,15.3046376 203.6758,15.3046376 C202.872567,15.3046376 202.22168,15.4500484 201.723122,15.7408743 C201.224563,16.0317003 200.843725,16.4194623 200.580597,16.9041722 C200.317469,17.3888821 200.144361,17.9359036 200.061268,18.5452531 C199.978174,19.1546027 199.936629,19.7916404 199.936629,20.4563854 L199.936629,30.5106027 L193.704676,30.5106027 L193.704676,10.3190753 Z" id="Function" fill="#1BB2EB"></path>
                        <path d="M85,34.578745 L86.5429824,34.578745 L86.5429824,39.3041285 L92.4416754,39.3041285 L92.4416754,34.578745 L93.9846577,34.578745 L93.9846577,45.95824 L92.4416754,45.95824 L92.4416754,40.7506745 L86.5429824,40.7506745 L86.5429824,45.95824 L85,45.95824 L85,34.578745 Z M97.6331681,42.6794024 C97.6331681,43.0115739 97.7054947,43.314274 97.85015,43.5875118 C97.9948053,43.8607497 98.1849974,44.093802 98.420732,44.2866757 C98.6564666,44.4795495 98.9297004,44.6295602 99.2404414,44.7367122 C99.5511825,44.8438643 99.8726339,44.8974396 100.204805,44.8974396 C100.654844,44.8974396 101.045943,44.7929679 101.378115,44.5840213 C101.710286,44.3750747 102.015665,44.0991622 102.294261,43.7562755 L103.387207,44.5920576 C102.583566,45.6314329 101.458486,46.1511127 100.011933,46.1511127 C99.4118809,46.1511127 98.8680922,46.0493198 98.3805502,45.8457308 C97.8930082,45.6421419 97.4804788,45.3608718 97.1429498,45.0019123 C96.8054207,44.6429528 96.5455808,44.2197084 96.3634222,43.7321664 C96.1812637,43.2446244 96.0901858,42.7169083 96.0901858,42.1490022 C96.0901858,41.5810962 96.1893,41.05338 96.3875313,40.565838 C96.5857627,40.078296 96.8589964,39.6550516 97.2072407,39.2960921 C97.555485,38.9371326 97.9706931,38.6558626 98.4528775,38.4522737 C98.9350619,38.2486847 99.4600993,38.1468917 100.028005,38.1468917 C100.703063,38.1468917 101.27364,38.2647573 101.739751,38.5004919 C102.205863,38.7362264 102.588926,39.0442841 102.888952,39.424674 C103.188978,39.8050639 103.405957,40.2336658 103.539897,40.7104926 C103.673838,41.1873194 103.740807,41.6721754 103.740807,42.165075 L103.740807,42.6794024 L97.6331681,42.6794024 Z M102.197824,41.5221657 C102.187109,41.2007094 102.136213,40.9060456 102.045133,40.6381653 C101.954054,40.3702851 101.817437,40.1372328 101.635279,39.9390015 C101.45312,39.7407701 101.225425,39.5854019 100.952187,39.4728922 C100.67895,39.3603825 100.360177,39.3041285 99.9958599,39.3041285 C99.642258,39.3041285 99.3181278,39.3710976 99.0234595,39.5050377 C98.7287913,39.6389778 98.4796664,39.8130973 98.2760774,40.0274015 C98.0724885,40.2417057 97.9144415,40.4801155 97.8019318,40.7426381 C97.6894221,41.0051607 97.6331681,41.2650006 97.6331681,41.5221657 L102.197824,41.5221657 Z M105.508807,39.271983 C105.915985,38.8969507 106.387447,38.6156807 106.923208,38.4281646 C107.458968,38.2406484 107.994721,38.1468917 108.530481,38.1468917 C109.087672,38.1468917 109.56717,38.2165395 109.968991,38.3558373 C110.370811,38.495135 110.700299,38.6826483 110.957464,38.9183829 C111.214629,39.1541175 111.404821,39.4246725 111.528046,39.7300559 C111.651271,40.0354394 111.712882,40.3542121 111.712882,40.6863835 L111.712882,44.5759849 C111.712882,44.8438651 111.71824,45.0903112 111.728955,45.3153306 C111.73967,45.54035 111.755743,45.754651 111.777173,45.95824 L110.491355,45.95824 C110.459209,45.5724924 110.443136,45.1867507 110.443136,44.8010032 L110.410991,44.8010032 C110.089535,45.2939028 109.70915,45.6421419 109.269827,45.8457308 C108.830503,46.0493198 108.321538,46.1511127 107.742917,46.1511127 C107.389315,46.1511127 107.051791,46.102895 106.730335,46.0064582 C106.408879,45.9100213 106.127609,45.7653681 105.886517,45.5724944 C105.645424,45.3796206 105.455232,45.1412108 105.315934,44.8572577 C105.176637,44.5733047 105.106989,44.243817 105.106989,43.8687847 C105.106989,43.3758851 105.216818,42.9633557 105.43648,42.6311842 C105.656142,42.2990128 105.956163,42.0284578 106.336553,41.8195112 C106.716943,41.6105646 107.161617,41.460554 107.67059,41.3694747 C108.179562,41.2783954 108.723351,41.2328565 109.301972,41.2328565 L110.362773,41.2328565 L110.362773,40.9114018 C110.362773,40.718528 110.32527,40.5256572 110.250264,40.3327834 C110.175257,40.1399096 110.062749,39.9657901 109.912736,39.8104196 C109.762723,39.6550491 109.57521,39.531826 109.35019,39.4407467 C109.125171,39.3496675 108.857295,39.3041285 108.546554,39.3041285 C108.267958,39.3041285 108.024191,39.3309161 107.815244,39.3844922 C107.606298,39.4380682 107.416106,39.5050373 107.244662,39.5854013 C107.073219,39.6657654 106.917851,39.7595221 106.778553,39.8666742 C106.639255,39.9738262 106.505317,40.0756192 106.376735,40.1720561 L105.508807,39.271983 Z M109.591281,42.2936568 C109.248395,42.2936568 108.897477,42.3124082 108.538517,42.3499114 C108.179558,42.3874146 107.852749,42.4597412 107.558081,42.5668933 C107.263412,42.6740454 107.022324,42.8240561 106.834808,43.0169298 C106.647292,43.2098036 106.553535,43.4562497 106.553535,43.7562755 C106.553535,44.1955991 106.700867,44.511693 106.995535,44.7045668 C107.290203,44.8974405 107.689339,44.993876 108.192954,44.993876 C108.589416,44.993876 108.92694,44.9269069 109.205536,44.7929668 C109.484131,44.6590267 109.709147,44.4849072 109.880591,44.270603 C110.052034,44.0562988 110.175257,43.817889 110.250264,43.5553664 C110.32527,43.2928438 110.362773,43.0330038 110.362773,42.7758388 L110.362773,42.2936568 L109.591281,42.2936568 Z M113.930919,33.8072538 L115.377465,33.8072538 L115.377465,45.95824 L113.930919,45.95824 L113.930919,33.8072538 Z M121.75834,39.5934377 L119.684958,39.5934377 L119.684958,43.0490753 C119.684958,43.2633795 119.690315,43.4750017 119.701031,43.6839482 C119.711746,43.8928948 119.751927,44.0804082 119.821576,44.2464939 C119.891225,44.4125796 119.998375,44.5465177 120.143031,44.6483122 C120.287686,44.7501067 120.499308,44.8010032 120.777904,44.8010032 C120.949347,44.8010032 121.126145,44.7849306 121.308304,44.752785 C121.490462,44.7206394 121.656546,44.6617066 121.806559,44.5759849 L121.806559,45.893949 C121.635115,45.9903859 121.412778,46.057355 121.13954,46.0948582 C120.866302,46.1323614 120.65468,46.1511127 120.504667,46.1511127 C119.947476,46.1511127 119.516196,46.0734286 119.210812,45.9180581 C118.905429,45.7626876 118.680413,45.5617804 118.535757,45.3153306 C118.391102,45.0688808 118.305382,44.7929683 118.278594,44.4875849 C118.251806,44.1822014 118.238412,43.8741438 118.238412,43.5634027 L118.238412,39.5934377 L116.566848,39.5934377 L116.566848,38.3397645 L118.238412,38.3397645 L118.238412,36.202091 L119.684958,36.202091 L119.684958,38.3397645 L121.75834,38.3397645 L121.75834,39.5934377 Z M123.622777,33.8072538 L125.069323,33.8072538 L125.069323,39.513074 L125.101469,39.513074 C125.283627,39.1058961 125.599721,38.7764084 126.04976,38.5246009 C126.499799,38.2727935 127.019479,38.1468917 127.608815,38.1468917 C127.973132,38.1468917 128.32405,38.2031457 128.661579,38.3156554 C128.999108,38.4281651 129.293772,38.6022846 129.545579,38.8380192 C129.797387,39.0737538 129.998294,39.3764539 130.148307,39.7461287 C130.29832,40.1158034 130.373325,40.5524416 130.373325,41.0560564 L130.373325,45.95824 L128.926779,45.95824 L128.926779,41.4578747 C128.926779,41.1042728 128.878562,40.8015727 128.782125,40.5497653 C128.685688,40.2979579 128.557107,40.094372 128.396379,39.9390015 C128.235651,39.7836309 128.050816,39.6711229 127.84187,39.6014741 C127.632923,39.5318252 127.415943,39.4970013 127.190924,39.4970013 C126.890898,39.4970013 126.612307,39.545219 126.355142,39.6416559 C126.097977,39.7380928 125.872961,39.8907822 125.680087,40.0997288 C125.487213,40.3086754 125.337203,40.5738728 125.230051,40.8953291 C125.122899,41.2167853 125.069323,41.5971695 125.069323,42.0364931 L125.069323,45.95824 L123.622777,45.95824 L123.622777,33.8072538 Z M147.088968,39.5934377 L147.088968,45.2028215 C146.810372,45.3742648 146.494278,45.5242755 146.140676,45.652858 C145.787074,45.7814405 145.420084,45.8912698 145.039694,45.9823491 C144.659304,46.0734283 144.273562,46.1403974 143.882457,46.1832582 C143.491352,46.2261191 143.124362,46.2475491 142.781475,46.2475491 C141.817106,46.2475491 140.957224,46.0868234 140.201801,45.7653672 C139.446379,45.4439109 138.808834,45.0099514 138.289146,44.4634758 C137.769459,43.9170001 137.373002,43.2821335 137.099764,42.5588569 C136.826526,41.8355803 136.689909,41.0721331 136.689909,40.2684925 C136.689909,39.421991 136.837241,38.6344349 137.131909,37.9058007 C137.426578,37.1771665 137.833749,36.5449787 138.353437,36.0092182 C138.873125,35.4734578 139.497276,35.0528922 140.225911,34.7475087 C140.954545,34.4421252 141.752816,34.2894358 142.620748,34.2894358 C143.670838,34.2894358 144.528042,34.4206951 145.192385,34.6832178 C145.856728,34.9457404 146.41391,35.3073733 146.863949,35.7681272 L145.771003,36.9414368 C145.299534,36.491398 144.801284,36.1779828 144.276239,36.0011819 C143.751194,35.8243809 143.199369,35.7359818 142.620748,35.7359818 C141.96712,35.7359818 141.377792,35.8565261 140.852747,36.0976183 C140.327702,36.3387105 139.87767,36.6628407 139.502638,37.0700186 C139.127605,37.4771966 138.838299,37.956695 138.63471,38.5085282 C138.431121,39.0603615 138.329328,39.6470104 138.329328,40.2684925 C138.329328,40.911405 138.441836,41.5087689 138.666855,42.0606022 C138.891875,42.6124355 139.202611,43.0919339 139.599074,43.4991118 C139.995537,43.9062897 140.461641,44.2250624 140.997402,44.4554394 C141.533162,44.6858164 142.117132,44.8010032 142.74933,44.8010032 C143.295805,44.8010032 143.812806,44.7501067 144.300348,44.6483122 C144.78789,44.5465177 145.203098,44.3991858 145.545985,44.2063121 L145.545985,41.0399837 L143.022566,41.0399837 L143.022566,39.5934377 L147.088968,39.5934377 Z M149.532023,38.3397645 L150.978569,38.3397645 L150.978569,39.513074 L151.010714,39.513074 C151.107151,39.3094851 151.235732,39.1246505 151.39646,38.9585647 C151.557188,38.792479 151.736665,38.6505046 151.934896,38.5326373 C152.133128,38.41477 152.350108,38.3210133 152.585842,38.2513645 C152.821577,38.1817156 153.057308,38.1468917 153.293042,38.1468917 C153.528777,38.1468917 153.743078,38.1790369 153.935952,38.2433281 L153.871661,39.8023832 C153.753794,39.7702376 153.635928,39.74345 153.518061,39.7220196 C153.400193,39.7005891 153.282328,39.6898741 153.164461,39.6898741 C152.457257,39.6898741 151.916147,39.8881025 151.541115,40.2845652 C151.166082,40.6810279 150.978569,41.2971432 150.978569,42.1329295 L150.978569,45.95824 L149.532023,45.95824 L149.532023,38.3397645 Z M156.652244,42.1490022 C156.652244,42.5347498 156.711176,42.8910251 156.829044,43.217839 C156.946911,43.5446529 157.112994,43.8232441 157.327298,44.0536211 C157.541603,44.2839981 157.804121,44.4661539 158.114862,44.600094 C158.425603,44.7340341 158.773842,44.8010032 159.15959,44.8010032 C159.545337,44.8010032 159.893577,44.7340341 160.204318,44.600094 C160.515059,44.4661539 160.777577,44.2839981 160.991882,44.0536211 C161.206186,43.8232441 161.372269,43.5446529 161.490136,43.217839 C161.608004,42.8910251 161.666936,42.5347498 161.666936,42.1490022 C161.666936,41.7632547 161.608004,41.4069794 161.490136,41.0801655 C161.372269,40.7533516 161.206186,40.4747604 160.991882,40.2443834 C160.777577,40.0140064 160.515059,39.8318506 160.204318,39.6979105 C159.893577,39.5639703 159.545337,39.4970013 159.15959,39.4970013 C158.773842,39.4970013 158.425603,39.5639703 158.114862,39.6979105 C157.804121,39.8318506 157.541603,40.0140064 157.327298,40.2443834 C157.112994,40.4747604 156.946911,40.7533516 156.829044,41.0801655 C156.711176,41.4069794 156.652244,41.7632547 156.652244,42.1490022 Z M155.109261,42.1490022 C155.109261,41.5918114 155.213733,41.0721315 155.42268,40.5899471 C155.631626,40.1077627 155.918254,39.6845183 156.282571,39.3202012 C156.646888,38.9558841 157.07549,38.6692566 157.568389,38.46031 C158.061289,38.2513634 158.591684,38.1468917 159.15959,38.1468917 C159.727496,38.1468917 160.257891,38.2513634 160.750791,38.46031 C161.24369,38.6692566 161.672292,38.9558841 162.036609,39.3202012 C162.400926,39.6845183 162.687554,40.1077627 162.8965,40.5899471 C163.105447,41.0721315 163.209919,41.5918114 163.209919,42.1490022 C163.209919,42.7061931 163.105447,43.2285517 162.8965,43.7160937 C162.687554,44.2036357 162.400926,44.6268801 162.036609,44.9858396 C161.672292,45.3447991 161.24369,45.6287479 160.750791,45.8376945 C160.257891,46.046641 159.727496,46.1511127 159.15959,46.1511127 C158.591684,46.1511127 158.061289,46.046641 157.568389,45.8376945 C157.07549,45.6287479 156.646888,45.3447991 156.282571,44.9858396 C155.918254,44.6268801 155.631626,44.2036357 155.42268,43.7160937 C155.213733,43.2285517 155.109261,42.7061931 155.109261,42.1490022 Z M171.776685,45.95824 L170.330139,45.95824 L170.330139,44.7849304 L170.297994,44.7849304 C170.115835,45.1921084 169.799741,45.5215961 169.349703,45.7734035 C168.899664,46.0252109 168.379984,46.1511127 167.790648,46.1511127 C167.415615,46.1511127 167.062019,46.0948587 166.729847,45.9823491 C166.397676,45.8698394 166.105691,45.6957198 165.853883,45.4599852 C165.602076,45.2242506 165.401169,44.9215505 165.251156,44.5518758 C165.101143,44.1822011 165.026138,43.7455629 165.026138,43.2419481 L165.026138,38.3397645 L166.472683,38.3397645 L166.472683,42.8401298 C166.472683,43.1937316 166.520901,43.4964318 166.617338,43.7482392 C166.713775,44.0000466 166.842356,44.2036325 167.003084,44.359003 C167.163812,44.5143736 167.348646,44.6268816 167.557593,44.6965304 C167.76654,44.7661793 167.983519,44.8010032 168.208539,44.8010032 C168.508564,44.8010032 168.787156,44.7527855 169.044321,44.6563486 C169.301486,44.5599117 169.526502,44.4072223 169.719376,44.1982757 C169.912249,43.9893291 170.06226,43.7241317 170.169412,43.4026754 C170.276564,43.0812191 170.330139,42.7008349 170.330139,42.2615114 L170.330139,38.3397645 L171.776685,38.3397645 L171.776685,45.95824 Z M173.962577,38.3397645 L175.409123,38.3397645 L175.409123,39.4327104 L175.441268,39.4327104 C175.719864,39.0255324 176.102927,38.7094385 176.590469,38.4844191 C177.078011,38.2593997 177.578939,38.1468917 178.093269,38.1468917 C178.682606,38.1468917 179.21568,38.2486847 179.692506,38.4522737 C180.169333,38.6558626 180.576505,38.9398114 180.914034,39.3041285 C181.251563,39.6684456 181.511403,40.0943688 181.693562,40.5819108 C181.87572,41.0694528 181.966798,41.5918114 181.966798,42.1490022 C181.966798,42.7169083 181.87572,43.2446244 181.693562,43.7321664 C181.511403,44.2197084 181.251563,44.6429528 180.914034,45.0019123 C180.576505,45.3608718 180.169333,45.6421419 179.692506,45.8457308 C179.21568,46.0493198 178.682606,46.1511127 178.093269,46.1511127 C177.546794,46.1511127 177.032471,46.035926 176.550287,45.805549 C176.068103,45.575172 175.698433,45.2617568 175.441268,44.8652941 L175.409123,44.8652941 L175.409123,50.4907507 L173.962577,50.4907507 L173.962577,38.3397645 Z M177.916469,39.4970013 C177.530722,39.4970013 177.182483,39.5639703 176.871742,39.6979105 C176.561001,39.8318506 176.298482,40.0140064 176.084178,40.2443834 C175.869874,40.4747604 175.70379,40.7533516 175.585923,41.0801655 C175.468056,41.4069794 175.409123,41.7632547 175.409123,42.1490022 C175.409123,42.5347498 175.468056,42.8910251 175.585923,43.217839 C175.70379,43.5446529 175.869874,43.8232441 176.084178,44.0536211 C176.298482,44.2839981 176.561001,44.4661539 176.871742,44.600094 C177.182483,44.7340341 177.530722,44.8010032 177.916469,44.8010032 C178.302217,44.8010032 178.650456,44.7340341 178.961197,44.600094 C179.271938,44.4661539 179.534457,44.2839981 179.748761,44.0536211 C179.963065,43.8232441 180.129148,43.5446529 180.247016,43.217839 C180.364883,42.8910251 180.423816,42.5347498 180.423816,42.1490022 C180.423816,41.7632547 180.364883,41.4069794 180.247016,41.0801655 C180.129148,40.7533516 179.963065,40.4747604 179.748761,40.2443834 C179.534457,40.0140064 179.271938,39.8318506 178.961197,39.6979105 C178.650456,39.5639703 178.302217,39.4970013 177.916469,39.4970013 Z M188.62091,34.578745 L190.163892,34.578745 L190.163892,45.95824 L188.62091,45.95824 L188.62091,34.578745 Z M192.719456,38.3397645 L194.166002,38.3397645 L194.166002,39.513074 L194.198148,39.513074 C194.380306,39.1058961 194.6964,38.7764084 195.146439,38.5246009 C195.596478,38.2727935 196.116158,38.1468917 196.705494,38.1468917 C197.069811,38.1468917 197.420729,38.2031457 197.758258,38.3156554 C198.095787,38.4281651 198.390451,38.6022846 198.642259,38.8380192 C198.894066,39.0737538 199.094973,39.3764539 199.244986,39.7461287 C199.394999,40.1158034 199.470004,40.5524416 199.470004,41.0560564 L199.470004,45.95824 L198.023458,45.95824 L198.023458,41.4578747 C198.023458,41.1042728 197.975241,40.8015727 197.878804,40.5497653 C197.782367,40.2979579 197.653786,40.094372 197.493058,39.9390015 C197.33233,39.7836309 197.147495,39.6711229 196.938549,39.6014741 C196.729602,39.5318252 196.512623,39.4970013 196.287603,39.4970013 C195.987577,39.4970013 195.708986,39.545219 195.451821,39.6416559 C195.194656,39.7380928 194.96964,39.8907822 194.776766,40.0997288 C194.583892,40.3086754 194.433882,40.5738728 194.32673,40.8953291 C194.219578,41.2167853 194.166002,41.5971695 194.166002,42.0364931 L194.166002,45.95824 L192.719456,45.95824 L192.719456,38.3397645 Z M207.104552,40.3649289 C206.836672,40.0863334 206.555402,39.8747112 206.260734,39.7300559 C205.966066,39.5854006 205.615148,39.513074 205.20797,39.513074 C204.811507,39.513074 204.465947,39.5854006 204.171279,39.7300559 C203.87661,39.8747112 203.630164,40.0729396 203.431933,40.324747 C203.233702,40.5765545 203.083691,40.8658608 202.981896,41.1926746 C202.880102,41.5194885 202.829205,41.8596913 202.829205,42.2132932 C202.829205,42.5668951 202.888138,42.9017403 203.006006,43.217839 C203.123873,43.5339376 203.289956,43.8098501 203.50426,44.0455847 C203.718564,44.2813193 203.975726,44.4661539 204.275751,44.600094 C204.575777,44.7340341 204.913301,44.8010032 205.288334,44.8010032 C205.695512,44.8010032 206.043751,44.7286766 206.333061,44.5840213 C206.622372,44.439366 206.890248,44.2277438 207.136698,43.9491483 L208.165353,44.9778032 C207.790321,45.3956964 207.353682,45.6957177 206.855425,45.8778763 C206.357168,46.0600348 205.829452,46.1511127 205.272261,46.1511127 C204.682924,46.1511127 204.144493,46.0546773 203.656951,45.8618036 C203.169409,45.6689298 202.748844,45.3983748 202.395242,45.0501305 C202.04164,44.7018863 201.768406,44.2839994 201.575532,43.7964574 C201.382659,43.3089154 201.286223,42.7704842 201.286223,42.1811477 C201.286223,41.5918112 201.382659,41.0507013 201.575532,40.5578017 C201.768406,40.0649021 202.038961,39.6416577 202.387205,39.2880558 C202.73545,38.9344539 203.153336,38.6585414 203.640878,38.46031 C204.128421,38.2620787 204.672209,38.1629645 205.272261,38.1629645 C205.829452,38.1629645 206.362525,38.2620787 206.871498,38.46031 C207.38047,38.6585414 207.822466,38.9612415 208.197498,39.3684194 L207.104552,40.3649289 Z M210.544117,46.0546764 C210.254807,46.0546764 210.005682,45.9502046 209.796735,45.7412581 C209.587789,45.5323115 209.483317,45.2831866 209.483317,44.993876 C209.483317,44.7045653 209.587789,44.4554405 209.796735,44.2464939 C210.005682,44.0375473 210.254807,43.9330756 210.544117,43.9330756 C210.833428,43.9330756 211.082553,44.0375473 211.291499,44.2464939 C211.500446,44.4554405 211.604918,44.7045653 211.604918,44.993876 C211.604918,45.2831866 211.500446,45.5323115 211.291499,45.7412581 C211.082553,45.9502046 210.833428,46.0546764 210.544117,46.0546764 Z" id="Health-Group-Inc." fill="#FFFFFF"></path>
                    </g>
                </g>
            </g>
        </g>
    </g>
</svg>